<svg id="svg" xmlns="http://www.w3.org/2000/svg" viewBox="45.5099983215332 59.27833557128906 412.7599792480469 215.9316864013672" height="215.9316864013672"><rect x="146.75" y="220.07" fill="none" stroke="#3794ff" stroke-width="2" width="88.91" height="45.140000000000015" rx="10" ry="10" d="M 146.75 230.07 a 10 10 0 0 1 10 -10 h 68.91 a 10 10 0 0 1 10 10 v 25.140000000000015 a 10 10 0 0 1 -10 10 h -68.91 a 10 10 0 0 1 -10 -10 Z"></rect><rect x="189.15" y="114.18" fill="none" stroke="#3794ff" stroke-width="2" width="93.71000000000001" height="57.44999999999999" rx="10" ry="10" d="M 189.15 124.18 a 10 10 0 0 1 10 -10 h 73.71000000000001 a 10 10 0 0 1 10 10 v 37.44999999999999 a 10 10 0 0 1 -10 10 h -73.71000000000001 a 10 10 0 0 1 -10 -10 Z"></rect><rect x="351.68" y="118.85" fill="none" stroke="#3794ff" stroke-width="2" width="96.58999999999997" height="58.69" rx="10" ry="10" d="M 351.68 128.85 a 10 10 0 0 1 10 -10 h 76.58999999999997 a 10 10 0 0 1 10 10 v 38.69 a 10 10 0 0 1 -10 10 h -76.58999999999997 a 10 10 0 0 1 -10 -10 Z"></rect><rect x="211.92" y="140.12" fill="rgba(240, 240,240, 0.4)" stroke="#BBB" stroke-width="1"></rect><rect x="211.92" y="106.05" fill="rgba(240, 240,240, 0.4)" stroke="#BBB" stroke-width="1"></rect><line x1="105.96" y1="178.51" x2="144.4" y2="216.47" fill="none" stroke="#3794ff" stroke-width="2" d="M 105.96 178.51 L 144.4 216.47"></line><line x1="287.33" y1="143.91" x2="347.2" y2="144.31" fill="none" stroke="#3794ff" stroke-width="2" d="M 287.33 143.91 L 347.2 144.31"></line><text font-family="inherit" font-size="14" fill="#3794ff" x="219.61" y="82.82">Client</text><rect x="232.87" y="77.99" fill="rgba(240, 240,240, 0.4)" stroke="#BBB" stroke-width="1"></rect><rect x="232.87" y="77.99" fill="rgba(240, 240,240, 0.4)" stroke="#BBB" stroke-width="1"></rect><line x1="389.42" y1="183.49" x2="246.15" y2="241.96" fill="none" stroke="#3794ff" stroke-width="2" d="M 389.42 183.49 L 246.15 241.96"></line><path d="M 135.76,217.2 L 135.63,217.06 L 135.99,217.06 L 136.96,217.06 L 137.66,217.06 L 138.1,217.06 L 138.53,217.06 L 138.95,217.06 L 139.42,217.06 L 139.84,217.06 L 140.2,217.06 L 140.46,217.06 L 140.7,217.06 L 140.98,217.06 L 141.35,217.06 L 141.86,217.06 L 142.48,217.06 L 143.22,217.06 L 143.42,217.06 L 143.88,217.06 L 144.46,217.06 L 144.66,217.06 L 144.9,217.06 L 145.1,217.06 L 145.3,217.06 L 145.49,217.06 L 145.64,216.98 L 145.7,216.76 L 145.76,216.5 L 146.09,215.82 L 146.38,215.32 L 146.78,214.65 L 147.11,214 L 147.45,213.42 L 147.64,213.1 L 147.8,212.73 L 148.1,212.23 L 148.36,211.88 L 148.77,211.33 L 148.9,211.1 L 149.06,210.82 L 149.11,210.58 L 149.11,210.42" fill="none" stroke="#3794ff" stroke-width="2"></path><path d="M 343.82,137.56 L 343.68,137.42 L 343.68,137.42 L 343.91,137.42 L 344.24,137.49 L 344.93,137.75 L 345.23,137.85 L 345.46,137.98 L 345.59,138.04 L 345.81,138.1 L 346.04,138.13 L 346.2,138.23 L 346.23,138.4 L 346.23,138.59 L 346.3,138.88 L 346.43,139.19 L 346.58,139.54 L 346.85,139.95 L 347.36,140.64 L 347.57,140.95 L 347.77,141.18 L 347.89,141.39 L 348.01,141.6 L 348.11,141.8 L 348.12,141.97 L 348.12,142.12 L 348.12,142.3 L 348.13,142.49 L 348.33,143.13 L 348.55,144.18 L 348.65,144.98 L 348.8,145.39 L 348.86,145.59 L 348.72,145.73 L 348.08,145.76 L 347.67,145.93 L 347.14,146.32 L 346.4,146.81 L 344.75,148.03 L 343.97,148.73 L 343.18,149.47 L 342.46,150.09 L 341.83,150.62 L 341.33,151.09 L 340.95,151.44 L 340.69,151.7 L 340.53,151.92 L 340.41,152.05" fill="none" stroke="#3794ff" stroke-width="2"></path><path d="M 249.82,231.1 L 249.76,231.14 L 249.76,231.43 L 249.76,231.73 L 249.76,231.99 L 249.68,232.4 L 249.54,232.88 L 249.31,233.35 L 248.63,234.47 L 248.2,235.06 L 247.8,235.71 L 247.45,236.28 L 247.13,236.66 L 246.89,236.93 L 246.75,237.15 L 246.64,237.35 L 246.45,237.64 L 246.26,237.93 L 246.06,238.23 L 245.86,238.53 L 245.66,238.83 L 245.46,239.13 L 245.26,239.42 L 245.08,239.77 L 244.91,240.03 L 244.83,240.19 L 244.83,240.35 L 244.83,240.52 L 244.83,240.67 L 244.83,240.81 L 244.76,240.97 L 244.69,241.11 L 244.61,241.33 L 244.45,241.65 L 244.21,242.02 L 243.93,242.34 L 243.66,242.76 L 243.27,243.48 L 243.26,243.63 L 243.39,243.73 L 244.26,243.74 L 245.28,243.74 L 246.65,243.74 L 248.03,243.83 L 249.72,244.04 L 251.63,244.5 L 253.3,245.01 L 254.92,245.45 L 256.63,246.11 L 258.19,246.77 L 259.64,247.25 L 260.75,247.65 L 261.53,248.01 L 262.24,248.25 L 262.68,248.45 L 262.89,248.64 L 263.11,248.75" fill="none" stroke="#3794ff" stroke-width="2"></path><text font-family="inherit" font-size="14" fill="#3794ff" x="236.57" y="83.66"></text><rect x="55.51" y="111.95" fill="none" stroke="#3794ff" stroke-width="2" width="100.92" height="64.00999999999999" rx="10" ry="10" d="M 55.51 121.95 a 10 10 0 0 1 10 -10 h 80.92 a 10 10 0 0 1 10 10 v 44.00999999999999 a 10 10 0 0 1 -10 10 h -80.92 a 10 10 0 0 1 -10 -10 Z"></rect><text font-family="inherit" font-size="14" fill="#3794ff" x="74.33" y="135.75">Client</text><text font-family="inherit" font-size="14" fill="#3794ff" x="206.88" y="128.72">Invoker</text><text font-family="inherit" font-size="14" fill="#3794ff" x="373.63" y="146.65">Command</text><text font-family="inherit" font-size="14" fill="#3794ff" x="164.1" y="241.02">Receiver</text></svg>